<svg width="73" height="44" viewBox="0 0 73 44" fill="none" xmlns="http://www.w3.org/2000/svg">
<path d="M36.239 44C35.995 44 35.7672 43.9351 35.5555 43.8214L33.391 42.5383C33.0655 42.3596 33.2282 42.2947 33.326 42.2622C33.7653 42.116 33.8467 42.0834 34.3024 41.8237C34.3513 41.7911 34.4165 41.8074 34.4652 41.8399L36.1252 42.8307C36.1903 42.8631 36.2717 42.8631 36.3204 42.8307L42.8141 39.0787C42.8792 39.0463 42.9119 38.9812 42.9119 38.9001V31.4125C42.9119 31.3312 42.8792 31.2664 42.8141 31.2338L36.3204 27.4981C36.2554 27.4655 36.174 27.4655 36.1252 27.4981L29.6315 31.2338C29.5665 31.2662 29.5338 31.3475 29.5338 31.4124V38.9C29.5338 38.965 29.5665 39.0461 29.6315 39.0787L31.4055 40.1019C32.3658 40.5892 32.9679 40.0207 32.9679 39.4523V32.0621C32.9679 31.9647 33.0493 31.8672 33.1632 31.8672H33.9932C34.0909 31.8672 34.1885 31.9484 34.1885 32.0621V39.4523C34.1885 40.7353 33.4886 41.4825 32.268 41.4825C31.8937 41.4825 31.6008 41.4825 30.7707 41.0764L29.0619 40.1019C28.6388 39.8584 28.3784 39.4035 28.3784 38.9163V31.4287C28.3784 30.9415 28.6388 30.4866 29.0619 30.243L35.5555 26.4911C35.9625 26.2637 36.5159 26.2637 36.9227 26.4911L43.4163 30.243C43.8394 30.4866 44.0999 30.9415 44.0999 31.4287V38.9163C44.0999 39.4035 43.8394 39.8584 43.4163 40.1019L36.9227 43.8539C36.711 43.9514 36.467 44 36.2392 44H36.239ZM38.2409 38.8513C35.3929 38.8513 34.8069 37.552 34.8069 36.4475C34.8069 36.35 34.8883 36.2526 35.0022 36.2526H35.8485C35.9461 36.2526 36.0275 36.3175 36.0275 36.4151C36.1578 37.2758 36.5321 37.6981 38.2572 37.6981C39.6242 37.6981 40.2103 37.3895 40.2103 36.6586C40.2103 36.2363 40.0474 35.9278 37.9154 35.7166C36.1414 35.5379 35.0348 35.1482 35.0348 33.7351C35.0348 32.4195 36.1416 31.6398 37.9968 31.6398C40.0799 31.6398 41.1053 32.3545 41.2356 33.9136C41.2356 33.9625 41.2193 34.0111 41.1867 34.0599C41.1541 34.0923 41.1053 34.1248 41.0565 34.1248H40.2102C40.1288 34.1248 40.0474 34.0599 40.0312 33.9787C39.8359 33.0854 39.3313 32.793 37.9968 32.793C36.4995 32.793 36.3204 33.3128 36.3204 33.7025C36.3204 34.1736 36.5321 34.3197 38.5501 34.5796C40.5519 34.8396 41.496 35.2131 41.496 36.6098C41.4796 38.0392 40.3079 38.8513 38.2409 38.8513Z" fill="#539E43"/>
<path d="M16.091 14.7155C16.091 14.4232 15.9282 14.1469 15.6679 14.0007L8.76733 10.0377C8.65327 9.97264 8.52316 9.94017 8.39305 9.92387H8.32785C8.19774 9.92387 8.06748 9.97264 7.95356 10.0377L1.05303 14.0007C0.792525 14.1469 0.629883 14.423 0.629883 14.7155L0.646217 25.3702C0.646217 25.5164 0.727609 25.6625 0.857722 25.7276C0.987977 25.8088 1.15062 25.8088 1.26468 25.7276L5.36593 23.3887C5.6263 23.2425 5.78908 22.9664 5.78908 22.6741V17.6877C5.78908 17.3954 5.95173 17.1193 6.21224 16.9731L7.95356 15.9661C8.08382 15.8848 8.23026 15.8522 8.37671 15.8522C8.52316 15.8522 8.66961 15.8848 8.78367 15.9661L10.525 16.9731C10.7855 17.1193 10.9481 17.3953 10.9481 17.6877V22.6741C10.9481 22.9664 11.1109 23.2425 11.3713 23.3887L15.4726 25.7276C15.6028 25.8088 15.7654 25.8088 15.8957 25.7276C16.026 25.6625 16.1073 25.5164 16.1073 25.3702L16.091 14.7155ZM49.2591 0.0487999C49.129 -0.0162666 48.9662 -0.0162666 48.8522 0.0487999C48.7221 0.130028 48.6407 0.25988 48.6407 0.406033V10.9635C48.6407 11.0609 48.592 11.1583 48.4942 11.2234C48.3966 11.272 48.2989 11.272 48.2013 11.2234L46.4762 10.2326C46.3497 10.1608 46.2067 10.123 46.0612 10.123C45.9156 10.123 45.7726 10.1608 45.6461 10.2326L38.7456 14.2119C38.4852 14.3581 38.3224 14.6342 38.3224 14.9265V22.8689C38.3224 23.1612 38.4852 23.4375 38.7456 23.5836L45.6461 27.5629C45.7726 27.6348 45.9156 27.6726 46.0612 27.6726C46.2067 27.6726 46.3497 27.6348 46.4762 27.5629L53.3767 23.5836C53.6371 23.4375 53.7999 23.1613 53.7999 22.8689V3.06982C53.7999 2.76122 53.6371 2.48521 53.3767 2.33892L49.2593 0.0487999H49.2591ZM48.6245 20.254C48.6245 20.3352 48.592 20.4001 48.5268 20.4326L46.167 21.7969C46.134 21.8129 46.0978 21.8213 46.0612 21.8213C46.0245 21.8213 45.9883 21.8129 45.9553 21.7969L43.5955 20.4326C43.5303 20.4001 43.4978 20.3189 43.4978 20.254V17.5253C43.4978 17.444 43.5303 17.3791 43.5955 17.3467L45.9553 15.9822C45.9883 15.9662 46.0245 15.9578 46.0612 15.9578C46.0978 15.9578 46.134 15.9662 46.167 15.9822L48.5268 17.3467C48.592 17.379 48.6245 17.4603 48.6245 17.5253V20.254ZM72.2229 17.4603C72.4834 17.3142 72.6299 17.038 72.6299 16.7456V14.8129C72.6299 14.5205 72.4671 14.2444 72.2229 14.0982L65.3713 10.1352C65.2448 10.0634 65.1018 10.0256 64.9563 10.0256C64.8108 10.0256 64.6678 10.0634 64.5413 10.1352L57.6408 14.1144C57.3803 14.2606 57.2176 14.5367 57.2176 14.8292V22.7715C57.2176 23.0638 57.3803 23.3399 57.6408 23.4861L64.4924 27.3842C64.7529 27.5303 65.062 27.5303 65.3062 27.3842L69.4562 25.078C69.5864 25.013 69.6678 24.8668 69.6678 24.7207C69.6678 24.5745 69.5864 24.4284 69.4562 24.3633L62.5231 20.384C62.393 20.3029 62.3116 20.1729 62.3116 20.0267V17.5417C62.3116 17.3956 62.393 17.2494 62.5231 17.1843L64.6877 15.9499C64.7511 15.9101 64.8245 15.889 64.8993 15.889C64.9742 15.889 65.0475 15.9101 65.1109 15.9499L67.2754 17.1843C67.4056 17.2656 67.487 17.3954 67.487 17.5417V19.4908C67.487 19.6369 67.5684 19.7831 67.6985 19.848C67.8288 19.9292 67.9914 19.9292 68.1217 19.848L72.2229 17.4603Z" fill="black"/>
<path d="M64.8504 17.0866C64.8745 17.0707 64.9028 17.0623 64.9317 17.0623C64.9606 17.0623 64.9889 17.0707 65.013 17.0866L66.3313 17.85C66.3802 17.8823 66.4127 17.931 66.4127 17.9961V19.5228C66.4127 19.5878 66.3802 19.6365 66.3313 19.669L65.013 20.4324C64.9889 20.4482 64.9606 20.4567 64.9317 20.4567C64.9028 20.4567 64.8745 20.4482 64.8504 20.4324L63.5321 19.669C63.4832 19.6365 63.4507 19.5878 63.4507 19.5228V17.9961C63.4507 17.931 63.4832 17.8823 63.5321 17.85L64.8504 17.0866Z" fill="#539E43"/>
<path d="M27.6298 10.1677C27.5034 10.0959 27.3604 10.0581 27.2149 10.0581C27.0694 10.0581 26.9263 10.0959 26.7999 10.1677L19.9482 14.1143C19.6877 14.2604 19.5413 14.5366 19.5413 14.8289V22.7389C19.5413 23.0312 19.704 23.3074 19.9482 23.4535L26.7999 27.4004C26.9263 27.4722 27.0694 27.51 27.2149 27.51C27.3604 27.51 27.5034 27.4722 27.6298 27.4004L34.4817 23.4535C34.742 23.3074 34.8886 23.0312 34.8886 22.7389V14.829C34.8886 14.5367 34.7257 14.2606 34.4817 14.1144L27.6298 10.1677Z" fill="black"/>
<mask id="mask0_3849_66980" style="mask-type:alpha" maskUnits="userSpaceOnUse" x="19" y="10" width="16" height="18">
<path d="M27.6298 10.168C27.5034 10.0961 27.3604 10.0583 27.2149 10.0583C27.0694 10.0583 26.9263 10.0961 26.7999 10.168L19.9482 14.1145C19.6877 14.2607 19.5413 14.5368 19.5413 14.8291V22.7392C19.5413 23.0315 19.704 23.3076 19.9482 23.4538L26.7999 27.4006C26.9263 27.4725 27.0694 27.5102 27.2149 27.5102C27.3604 27.5102 27.5034 27.4725 27.6298 27.4006L34.4817 23.4538C34.742 23.3076 34.8886 23.0315 34.8886 22.7392V14.8293C34.8886 14.537 34.7257 14.2608 34.4817 14.1147L27.6298 10.168Z" fill="black"/>
</mask>
<g mask="url(#mask0_3849_66980)">
<path d="M27.6298 10.168C27.5034 10.0961 27.3604 10.0583 27.2149 10.0583C27.0694 10.0583 26.9263 10.0961 26.7999 10.168L19.9482 14.1145C19.6877 14.2607 19.5413 14.5368 19.5413 14.8291V22.7392C19.5413 23.0315 19.704 23.3076 19.9482 23.4538L26.7999 27.4006C26.9263 27.4725 27.0694 27.5102 27.2149 27.5102C27.3604 27.5102 27.5034 27.4725 27.6298 27.4006L34.4817 23.4538C34.742 23.3076 34.8886 23.0315 34.8886 22.7392V14.8293C34.8886 14.537 34.7257 14.2608 34.4817 14.1147L27.6298 10.168Z" fill="url(#paint0_linear_3849_66980)"/>
<path d="M34.4979 14.1151L27.6137 10.1684C27.5461 10.1343 27.4751 10.1071 27.402 10.0872L19.6877 23.2758C19.7516 23.3537 19.8288 23.4197 19.9157 23.4708L26.7999 27.4176C26.9952 27.5313 27.2231 27.5638 27.4346 27.4987L34.677 14.2777C34.6281 14.2128 34.5629 14.1639 34.4979 14.1152V14.1151Z" fill="url(#paint1_linear_3849_66980)"/>
<path fill-rule="evenodd" clip-rule="evenodd" d="M34.5141 23.4534C34.7094 23.3397 34.8559 23.1448 34.9211 22.9337L27.3693 10.07C27.174 10.0375 26.9623 10.0537 26.7835 10.1673L19.948 14.098L27.3204 27.514C27.4276 27.4964 27.5318 27.4636 27.6296 27.4166L34.514 23.4536L34.5141 23.4534Z" fill="url(#paint2_linear_3849_66980)"/>
<path fill-rule="evenodd" clip-rule="evenodd" d="M34.5141 23.454L27.6461 27.4008C27.5492 27.4502 27.4447 27.4831 27.3369 27.4982L27.4672 27.7419L35.0837 23.3404V23.2429L34.8884 22.918C34.8559 23.1454 34.7095 23.3403 34.5141 23.454Z" fill="url(#paint3_linear_3849_66980)"/>
<path fill-rule="evenodd" clip-rule="evenodd" d="M34.5141 23.454L27.6461 27.4008C27.5492 27.4502 27.4447 27.4831 27.3369 27.4982L27.4672 27.7419L35.0837 23.3404V23.2429L34.8884 22.918C34.8559 23.1454 34.7095 23.3403 34.5141 23.454Z" fill="url(#paint4_linear_3849_66980)"/>
</g>
<defs>
<linearGradient id="paint0_linear_3849_66980" x1="30.0063" y1="13.1102" x2="22.5177" y2="24.9007" gradientUnits="userSpaceOnUse">
<stop stop-color="#41873F"/>
<stop offset="0.3288" stop-color="#418B3D"/>
<stop offset="0.6352" stop-color="#419637"/>
<stop offset="0.9319" stop-color="#3FA92D"/>
<stop offset="1" stop-color="#3FAE2A"/>
</linearGradient>
<linearGradient id="paint1_linear_3849_66980" x1="26.1746" y1="19.7112" x2="44.966" y2="9.48123" gradientUnits="userSpaceOnUse">
<stop offset="0.1376" stop-color="#41873F"/>
<stop offset="0.4032" stop-color="#54A044"/>
<stop offset="0.7136" stop-color="#66B848"/>
<stop offset="0.9081" stop-color="#6CC04A"/>
</linearGradient>
<linearGradient id="paint2_linear_3849_66980" x1="19.2908" y1="18.784" x2="35.1455" y2="18.784" gradientUnits="userSpaceOnUse">
<stop offset="0.09192" stop-color="#6CC04A"/>
<stop offset="0.2864" stop-color="#66B848"/>
<stop offset="0.5968" stop-color="#54A044"/>
<stop offset="0.8624" stop-color="#41873F"/>
</linearGradient>
<linearGradient id="paint3_linear_3849_66980" x1="19.291" y1="25.3432" x2="35.1455" y2="25.3432" gradientUnits="userSpaceOnUse">
<stop offset="0.09192" stop-color="#6CC04A"/>
<stop offset="0.2864" stop-color="#66B848"/>
<stop offset="0.5968" stop-color="#54A044"/>
<stop offset="0.8624" stop-color="#41873F"/>
</linearGradient>
<linearGradient id="paint4_linear_3849_66980" x1="37.4553" y1="12.7362" x2="33.4543" y2="33.7435" gradientUnits="userSpaceOnUse">
<stop stop-color="#41873F"/>
<stop offset="0.3288" stop-color="#418B3D"/>
<stop offset="0.6352" stop-color="#419637"/>
<stop offset="0.9319" stop-color="#3FA92D"/>
<stop offset="1" stop-color="#3FAE2A"/>
</linearGradient>
</defs>
</svg>
